<svg width="770" height="675" viewBox="0 0 770 675" fill="none" xmlns="http://www.w3.org/2000/svg">
<path d="M431.693 595.384C407.272 620.316 331.318 697.857 288.177 668.433C255.031 645.826 310.811 527.104 347.01 462.865C364.547 430.219 356.214 417.758 321.002 430C285.79 442.242 120.501 596.847 61.0005 638.847C3.25061 679.611 -20.9999 628 24.001 581.717C68.4569 535.994 638.771 9.90163 692.865 1.23004C746.96 -7.44155 743.898 31.8357 732.671 53.2596C721.443 74.6835 726.036 83.3551 732.671 109.88C739.305 136.405 725.016 157.829 696.438 192.515C667.859 227.202 627.033 247.095 585.187 296.064C543.34 345.033 544.871 386.861 585.187 365.947C625.503 345.034 698.989 194.556 757.677 221.081C816.364 247.606 651.019 454.194 565.284 581.717C479.55 709.24 461.178 678.125 467.302 638.847C473.426 599.57 456.075 570.495 432.09 594.979L431.693 595.384Z" fill="#FAD3CA"/>
</svg>
