<svg width="180" height="201" viewBox="0 0 180 201" fill="none" xmlns="http://www.w3.org/2000/svg">
<path d="M75.1815 195.826C37.5815 212.626 17.5148 182.159 12.1815 164.826C-6.81851 97.3258 -5.81851 70.326 31.1815 28.326C68.1815 -13.674 100.681 2.326 109.181 6.326C117.681 10.326 176.681 72.326 179.181 101.826C181.681 131.326 153.681 151.826 139.181 160.326C124.681 168.826 122.181 174.826 75.1815 195.826Z" fill="#FDF5F3"/>
<path d="M87.0003 68.0001C92.6003 66.0001 98.667 70.5001 101 73.0001C102.999 74.8193 99.5018 73.0001 104.002 75C112.502 78.5 111.002 84 112.002 88C113.002 92 113.002 104.5 109.002 105.5C105.002 106.5 107.502 109.5 106.502 113C101.702 119.8 93.1685 122.833 89.5018 123.5C89.6685 123.833 88.2018 123.6 81.0018 120C73.8018 116.4 72.6685 109.833 73.0018 107C72.5018 102.5 71.0018 108 69.5003 104.5C67.5003 93.5 69.5003 90.5 70.5003 88C71.5003 85.5 75.5003 83.5 78.0003 79.5C80.5003 75.5 80.0003 70.5001 87.0003 68.0001Z" fill="#DAEFF8"/>
<path d="M85.8984 51.2695C81.0938 52.0898 76.4258 54.2187 72.4219 57.3828C67.8711 60.996 63.2227 67.1679 61.8945 71.3085C60.5664 75.4687 60.5273 83.75 61.7969 90.6054L62.0898 92.246L61.3867 93.6328C59.7461 96.8554 60.4688 100.781 63.2422 103.789C64.4336 105.078 66.2305 106.328 67.3828 106.68C68.3984 106.973 68.3203 107.148 67.207 107.07C66.0352 106.992 65.2344 107.461 64.375 108.691C62.5 111.348 61.0742 117.09 61.4648 120.312C61.7578 122.637 62.3633 123.809 64.1797 125.586C65.5859 126.934 65.7422 127.187 66.4062 128.906C67.3438 131.387 68.0469 133.965 67.8125 134.16C67.7148 134.238 66.6797 134.648 65.4883 135.039C61.0156 136.562 58.0469 138.301 56.1719 140.488C54.1602 142.812 51.7188 147.051 51.7188 148.184C51.7188 149.141 52.9688 149.746 53.7305 149.18C53.9062 149.043 54.3164 148.32 54.6484 147.559C55.5078 145.644 57.207 143.184 58.7109 141.641C60.2148 140.137 62.3828 138.906 65.7227 137.695C67.6562 136.992 67.7344 136.973 67.6172 137.383C67.4023 138.144 65.4492 143.027 64.4336 145.391C63.8867 146.66 63.4375 147.949 63.4375 148.242C63.4375 149.199 64.6484 149.785 65.4297 149.18C65.8203 148.867 68.8477 141.738 69.9219 138.594C70.6641 136.406 70.7031 136.152 70.6055 134.766C70.4492 132.91 69.7461 130.371 68.5938 127.519C66.8359 123.184 66.875 123.359 66.875 120.703C66.875 118.477 66.9141 118.105 67.4805 116.504C69.1406 111.68 70.957 106.973 71.2109 106.894C71.3477 106.836 71.5625 106.875 71.6992 107.012C71.9727 107.285 71.6406 110.742 71.0156 114.16C70.7812 115.449 70.5859 117.031 70.5859 117.676C70.5859 119.121 71.0547 120.059 73.125 122.656C77.1094 127.637 77.9102 130.762 76.2695 134.883C75.8789 135.84 75.332 137.441 75.0586 138.457C74.2969 141.172 72.8125 147.676 72.8125 148.262C72.8125 149.297 74.1797 149.805 74.9219 149.062C75.1172 148.867 75.3906 148.125 75.5273 147.441C76.0938 144.629 77.9297 137.617 78.3984 136.465C78.9844 135.059 79.375 133.848 79.5508 132.695C79.6289 132.148 79.8633 131.699 80.2734 131.328C81.8945 129.805 83.2227 126.758 83.4766 124.004C83.5938 122.852 83.6719 122.656 83.9258 122.754C86.4258 123.75 88.8477 124.414 90 124.414C90.957 124.414 93.9648 123.652 95.3906 123.047C95.8789 122.832 96.3086 122.656 96.3281 122.656C96.3672 122.656 96.4453 123.203 96.5234 123.887C96.8164 126.758 97.8125 129.199 99.3555 130.898C100.137 131.758 100.352 132.148 100.547 133.105C100.684 133.75 101.094 135.059 101.465 136.035C102.09 137.695 103.613 143.418 104.375 147.07C104.57 147.988 104.883 148.867 105.078 149.062C105.84 149.824 107.188 149.277 107.188 148.203C107.188 147.656 105.723 141.211 104.922 138.301C104.648 137.285 104.102 135.703 103.711 134.785C103.066 133.242 103.008 132.949 103.008 131.25C103.008 129.727 103.105 129.16 103.516 128.105C104.18 126.426 105.312 124.57 106.797 122.734C108.398 120.801 109.297 119.277 109.434 118.281C109.512 117.793 109.375 116.426 109.062 114.746C108.379 110.879 108.027 107.285 108.32 106.992C108.438 106.875 108.652 106.836 108.789 106.894C109.043 106.973 110.859 111.68 112.52 116.504C113.086 118.105 113.125 118.477 113.125 120.703C113.125 123.359 113.164 123.184 111.406 127.519C110.273 130.312 109.57 132.871 109.395 134.687C109.297 135.82 109.375 136.348 109.727 137.519C110.586 140.371 114.082 148.809 114.57 149.18C115.352 149.785 116.562 149.199 116.562 148.203C116.562 147.93 115.918 146.172 115.117 144.316C113.848 141.328 112.266 137.285 112.266 137.051C112.266 136.855 116.562 138.555 118.203 139.414C119.492 140.078 120.332 140.684 121.289 141.641C122.793 143.184 124.492 145.644 125.352 147.559C126.016 149.082 126.348 149.414 127.129 149.414C127.734 149.414 128.281 148.809 128.281 148.144C128.281 147.539 126.641 144.277 125.625 142.793C122.812 138.789 120.312 137.051 114.512 135.059C113.34 134.648 112.285 134.238 112.207 134.16C111.973 133.984 112.695 131.269 113.594 128.945C114.258 127.187 114.414 126.934 115.82 125.586C117.656 123.789 118.242 122.637 118.535 120.254C118.691 118.906 118.672 118.242 118.418 116.758C117.734 112.676 116.367 109.16 114.98 107.91C114.141 107.148 113.555 106.953 112.559 107.07C111.66 107.168 111.68 106.953 112.617 106.68C113.809 106.328 115.586 105.059 116.777 103.73C119.551 100.684 120.254 96.8554 118.613 93.6328L117.91 92.246L118.203 90.7031C119.141 85.7617 119.414 78.2812 118.828 74.5117C118.281 71.1132 117.559 69.3164 115.449 66.1132C110.059 57.9296 102.363 52.6171 93.9258 51.2499C91.875 50.9179 87.8906 50.9179 85.8984 51.2695ZM95.2734 54.1601C100.254 55.4687 104.375 57.8124 108.32 61.6015C112.207 65.332 115.156 69.8242 115.977 73.2812C116.777 76.6796 116.816 82.7343 116.055 87.871C115.586 91.0742 115.762 90.8007 114.355 90.4492C113.691 90.2929 113.125 90.1367 113.105 90.1367C113.066 90.1171 112.93 88.8085 112.754 87.1875C111.68 76.6992 109.18 72.0703 103.242 69.6093C101.953 69.082 101.484 68.7304 100.293 67.539C97.2852 64.4531 93.8672 62.7929 90.0977 62.5585C84.3555 62.207 79.8828 65.2734 77.7734 70.996C76.1914 75.332 74.6094 77.6171 71.6406 79.8828C70.8203 80.5078 69.8633 81.3476 69.4922 81.7578C68.2227 83.2226 67.3438 85.7226 67.0312 88.8671L66.9141 90.1367L65.6641 90.4296C64.2188 90.7812 64.4141 91.0546 63.9453 87.8906C63.1836 82.6757 63.2031 76.7382 64.0039 73.3398C65.4297 67.4023 72.3047 59.6484 79.2969 56.1328C81.0352 55.2539 84.2188 54.1992 86.2109 53.8281C88.5938 53.3789 92.9102 53.5351 95.2734 54.1601ZM91.7383 65.332C93.125 65.664 95.3516 66.7187 96.5234 67.6171C96.9727 67.9492 97.9883 68.9062 98.7891 69.7265C100.039 70.996 100.469 71.3085 101.66 71.7578C103.496 72.4609 105.137 73.5351 106.172 74.707C108.672 77.5585 110.215 83.5546 110.449 91.5039C110.566 95.5468 110.293 98.5351 109.473 102.246L109.043 104.18L108.301 104.336C105.918 104.824 105.254 106.406 105.801 110.254C105.918 111.172 105.898 111.289 105.156 112.363C103.418 114.902 99.2383 118.34 95.9766 119.922C93.9648 120.898 90.9766 121.875 90 121.875C88.125 121.875 82.832 119.609 80.332 117.734C78.3984 116.289 75.7422 113.672 74.8438 112.344C74.1016 111.289 74.082 111.191 74.1992 110.156C74.6289 106.816 74.2578 105.43 72.7539 104.707C72.2852 104.473 71.7188 104.297 71.5039 104.297C71.1328 104.297 71.0352 104.062 70.6836 102.559C69.4336 97.2265 69.1406 90.2539 70 86.6015C70.0781 86.3085 70.2539 86.2109 70.7227 86.1914C71.0742 86.1914 71.8359 86.0937 72.4219 85.957C74.2773 85.5664 77.3242 85.4882 80.5859 85.7421C84.1406 86.0156 84.3945 85.957 84.2969 84.8828C84.2578 84.4335 84.082 84.1992 83.6719 84.0039C81.0938 82.7734 75.8984 82.9687 71.9727 84.4531C71.25 84.7265 70.6641 84.8828 70.6641 84.8046C70.6641 84.375 72.0508 82.871 73.4766 81.7578C76.4844 79.414 78.1836 77.1093 79.5898 73.4375C81.1133 69.4335 82.4219 67.539 84.5508 66.2695C86.5234 65.0781 89.1992 64.746 91.7383 65.332ZM66.9922 94.2382L67.0508 95.7031H66.2695C65.3711 95.7031 65.1562 95.8203 64.8242 96.4257C64.3945 97.2656 65.1367 98.2421 66.2305 98.2421C66.9531 98.2421 67.3242 98.8281 67.6172 100.508C67.7734 101.348 67.9883 102.441 68.1055 102.93C68.4375 104.336 68.418 104.355 67.4023 103.828C65.2734 102.754 63.3398 100.019 63.1055 97.7929C62.8906 95.7226 63.8281 93.8867 65.4688 93.1445C66.8359 92.5195 66.9141 92.5781 66.9922 94.2382ZM114.531 93.1445C117.734 94.5898 117.695 99.2187 114.473 102.383C113.516 103.301 111.914 104.394 111.758 104.238C111.621 104.102 112.793 98.8476 113.027 98.5742C113.164 98.3789 113.516 98.2421 113.809 98.2421C114.629 98.2421 115.195 97.7343 115.195 96.9726C115.195 96.1132 114.766 95.7031 113.809 95.7031H113.047V94.2382C113.047 92.5781 113.125 92.5 114.531 93.1445ZM67.1484 109.727C67.1484 109.824 66.6211 111.328 65.957 113.086C64.7852 116.211 64.2383 118.379 64.1992 119.98L64.1797 120.801L63.9844 119.746C63.8281 118.945 63.8672 118.281 64.1016 116.953C64.668 113.926 66.3477 109.57 66.9531 109.57C67.0703 109.57 67.1484 109.648 67.1484 109.727ZM113.75 110.449C114.453 111.68 115.508 114.844 115.898 116.953C116.133 118.281 116.172 118.945 116.016 119.746L115.82 120.801L115.801 119.98C115.762 118.379 115.215 116.211 114.043 113.086C113.379 111.328 112.852 109.824 112.852 109.727C112.852 109.316 113.281 109.648 113.75 110.449ZM79.2773 120.117C80.293 120.801 81.1328 121.367 81.1523 121.387C81.1914 121.406 81.1133 122.187 81.0156 123.164C80.8008 125 80.4297 126.348 79.7852 127.637C79.3945 128.418 79.3945 128.418 79.1992 127.93C78.3008 125.664 76.9336 123.281 75.4492 121.387C73.0664 118.379 72.9492 118.125 73.2422 116.426L73.4766 115.078L75.4688 116.973C76.5625 118.027 78.2812 119.434 79.2773 120.117ZM106.621 118.516C106.426 118.906 105.488 120.215 104.551 121.387C103.066 123.281 101.699 125.664 100.801 127.93C100.605 128.418 100.605 128.418 100.215 127.637C99.5703 126.348 99.1992 125 98.9844 123.164C98.8867 122.187 98.8086 121.406 98.8477 121.387C98.8672 121.367 99.4531 120.977 100.156 120.508C101.855 119.375 103.906 117.676 105.332 116.23L106.504 115.039L106.758 116.406C106.973 117.656 106.973 117.832 106.621 118.516Z" fill="#2A3F75"/>
<path d="M97.4219 83.6327C95.8789 84.1014 95.6641 84.2772 95.6641 84.9608C95.6641 85.9569 95.9375 86.0155 99.4141 85.7421C102.656 85.4882 105.703 85.5663 107.578 85.9569C109.434 86.3475 109.629 86.3085 109.629 85.6444C109.629 85.0975 109.531 85.0389 108.164 84.5116C104.746 83.1835 100.039 82.7929 97.4219 83.6327Z" fill="#2A3F75"/>
<path d="M73.8461 91.6796C72.6937 92.207 72.5375 93.3593 73.6312 93.3593C73.9437 93.3593 74.8226 93.7109 75.6039 94.1406C78.6312 95.8007 81.8343 95.957 83.3578 94.5312C84.0414 93.8867 84.0609 93.75 83.5922 93.164C83.2601 92.7539 83.182 92.7343 82.1468 92.9492C80.8578 93.2226 79.139 92.9296 77.1078 92.1093C75.4867 91.4453 74.6273 91.3281 73.8461 91.6796Z" fill="#2A3F75"/>
<path d="M104.453 91.5429C104.297 91.6015 103.496 91.8945 102.695 92.1874C100.566 92.9882 99.0819 93.2226 97.7929 92.9492C96.8163 92.7343 96.7382 92.7538 96.4062 93.164C95.9374 93.7499 95.9569 93.8867 96.6405 94.5312C98.1054 95.8984 101.152 95.7812 104.16 94.2577C105.117 93.7499 106.113 93.3593 106.328 93.3593C106.562 93.3593 106.855 93.2421 106.973 93.0859C107.637 92.2851 105.703 91.1132 104.453 91.5429Z" fill="#2A3F75"/>
<path d="M86.7971 100.43C86.3478 101.074 86.4064 101.621 87.0314 102.188C87.8908 103.008 88.7892 103.359 90.0002 103.359C91.2111 103.359 92.1096 103.008 92.9885 102.188C94.3361 100.918 92.6955 99.2188 91.2307 100.391C90.9377 100.625 90.4299 100.781 90.0002 100.781C89.5705 100.781 89.0627 100.625 88.7697 100.391C88.1057 99.8633 87.1682 99.8828 86.7971 100.43Z" fill="#2A3F75"/>
<path d="M87.1686 107.441C86.6413 107.539 85.6061 107.578 84.903 107.5C83.4577 107.383 83.0866 107.598 83.2038 108.535C83.2624 109.004 83.4186 109.141 84.2389 109.414C84.7858 109.609 85.86 109.746 86.6803 109.766C87.5592 109.766 88.3405 109.883 88.6335 110.059C88.9069 110.215 89.5124 110.332 90.0006 110.332C90.4889 110.332 91.0944 110.215 91.3678 110.059C91.6608 109.883 92.4421 109.766 93.321 109.766C94.1413 109.746 95.2155 109.609 95.7624 109.414C96.5827 109.141 96.7389 109.004 96.7975 108.535C96.9147 107.598 96.5436 107.363 95.1764 107.52C94.5319 107.578 93.3991 107.539 92.6764 107.422C91.6217 107.266 91.2506 107.266 90.6842 107.5C90.0788 107.754 89.9225 107.754 89.3171 107.5C88.5749 107.207 88.5553 107.207 87.1686 107.441Z" fill="#2A3F75"/>
<path d="M87.7741 111.895C87.5592 112.129 87.4616 112.5 87.5006 112.91C87.5787 113.809 88.4576 114.297 89.9811 114.297C91.9537 114.297 93.0084 113.34 92.2662 112.207C91.8756 111.621 91.2311 111.426 90.528 111.699C90.1764 111.836 89.8248 111.836 89.4928 111.719C88.7311 111.426 88.1451 111.484 87.7741 111.895Z" fill="#2A3F75"/>
<mask id="mask0_440_111" style="mask-type:alpha" maskUnits="userSpaceOnUse" x="68" y="98" width="15" height="22">
<path d="M73 112L81 120L83 111L81 101L68.5 98.5L70 104.5L73 106V112Z" fill="black"/>
</mask>
<g mask="url(#mask0_440_111)">
<circle cx="70.5" cy="111.5" r="9.75" stroke="#2A3F75" stroke-width="1.5" stroke-linejoin="round" stroke-dasharray="2 2"/>
</g>
<mask id="mask1_440_111" style="mask-type:alpha" maskUnits="userSpaceOnUse" x="97" y="98" width="15" height="22">
<path d="M107 112L99 120L97 111L99 101L111.5 98.5L110 104.5L107 106V112Z" fill="black"/>
</mask>
<g mask="url(#mask1_440_111)">
<circle cx="10.5" cy="10.5" r="9.75" transform="matrix(-1 0 0 1 120 101)" stroke="#2A3F75" stroke-width="1.5" stroke-linejoin="round" stroke-dasharray="2 2"/>
</g>
</svg>
