<svg width="70" height="50" viewBox="0 0 70 50" fill="none" xmlns="http://www.w3.org/2000/svg">
<mask id="path-1-inside-1_157_419" fill="white">
<path d="M23.6987 11.9136C26.58 7.22355 30.9286 3.61557 36.0698 1.64937C41.211 -0.316828 46.8574 -0.531313 52.133 1.03919C57.4086 2.6097 62.0183 5.87739 65.2471 10.3353C68.4759 14.7932 70.1432 20.1921 69.9904 25.6943C69.8375 31.1966 67.873 36.4945 64.4017 40.7663C60.9303 45.038 56.1462 48.0447 50.7916 49.3199C45.437 50.5951 39.8112 50.0674 34.7871 47.8188C29.763 45.5701 25.6214 41.7263 23.005 36.8835L23.6153 36.5538C26.1592 41.2621 30.1858 44.9993 35.0705 47.1856C39.9552 49.3718 45.4249 49.8848 50.6309 48.645C55.8369 47.4053 60.4883 44.482 63.8633 40.3288C67.2383 36.1756 69.1483 31.0246 69.2969 25.675C69.4455 20.3255 67.8245 15.0764 64.6853 10.7422C61.5461 6.40802 57.0642 3.23101 51.9351 1.70408C46.8059 0.17716 41.3162 0.385693 36.3176 2.29733C31.3191 4.20897 27.0912 7.71684 24.2898 12.2767L23.6987 11.9136Z"/>
</mask>
<path d="M23.6987 11.9136C26.58 7.22355 30.9286 3.61557 36.0698 1.64937C41.211 -0.316828 46.8574 -0.531313 52.133 1.03919C57.4086 2.6097 62.0183 5.87739 65.2471 10.3353C68.4759 14.7932 70.1432 20.1921 69.9904 25.6943C69.8375 31.1966 67.873 36.4945 64.4017 40.7663C60.9303 45.038 56.1462 48.0447 50.7916 49.3199C45.437 50.5951 39.8112 50.0674 34.7871 47.8188C29.763 45.5701 25.6214 41.7263 23.005 36.8835L23.6153 36.5538C26.1592 41.2621 30.1858 44.9993 35.0705 47.1856C39.9552 49.3718 45.4249 49.8848 50.6309 48.645C55.8369 47.4053 60.4883 44.482 63.8633 40.3288C67.2383 36.1756 69.1483 31.0246 69.2969 25.675C69.4455 20.3255 67.8245 15.0764 64.6853 10.7422C61.5461 6.40802 57.0642 3.23101 51.9351 1.70408C46.8059 0.17716 41.3162 0.385693 36.3176 2.29733C31.3191 4.20897 27.0912 7.71684 24.2898 12.2767L23.6987 11.9136Z" stroke="#60332D" stroke-width="2" mask="url(#path-1-inside-1_157_419)"/>
<g clip-path="url(#clip0_157_419)">
<path d="M40.1973 14.5C40.1973 20.299 46.1622 25 53.5202 25" stroke="#60332D" stroke-width="1.5" stroke-linecap="round"/>
<path d="M40.1973 35.5C40.1973 29.701 46.1622 25 53.5202 25" stroke="#60332D" stroke-width="1.5" stroke-linecap="round"/>
<path d="M0.796875 25L47.8259 25" stroke="#60332D" stroke-width="1.5" stroke-linecap="round"/>
</g>
<defs>
<clipPath id="clip0_157_419">
<rect width="55" height="24" fill="white" transform="translate(0 13)"/>
</clipPath>
</defs>
</svg>
