<svg width="70" height="50" viewBox="0 0 70 50" fill="none" xmlns="http://www.w3.org/2000/svg">
<mask id="path-1-inside-1_1387_795" fill="white">
<path d="M46.3013 11.9136C43.42 7.22355 39.0714 3.61557 33.9302 1.64937C28.789 -0.316828 23.1426 -0.531313 17.867 1.03919C12.5914 2.6097 7.98167 5.87739 4.75287 10.3353C1.52407 14.7932 -0.143227 20.1921 0.00964355 25.6943C0.162514 31.1966 2.12701 36.4945 5.59835 40.7663C9.06968 45.038 13.8538 48.0447 19.2084 49.3199C24.563 50.5951 30.1888 50.0674 35.2129 47.8188C40.237 45.5701 44.3786 41.7263 46.995 36.8835L46.3847 36.5538C43.8408 41.2621 39.8142 44.9993 34.9295 47.1856C30.0448 49.3718 24.5751 49.8848 19.3691 48.645C14.1631 47.4053 9.51173 44.482 6.13673 40.3288C2.76172 36.1756 0.851734 31.0246 0.703106 25.675C0.554478 20.3255 2.17551 15.0764 5.31471 10.7422C8.45391 6.40802 12.9358 3.23101 18.0649 1.70408C23.1941 0.17716 28.6838 0.385693 33.6824 2.29733C38.6809 4.20897 42.9088 7.71684 45.7102 12.2767L46.3013 11.9136Z"/>
</mask>
<path d="M46.3013 11.9136C43.42 7.22355 39.0714 3.61557 33.9302 1.64937C28.789 -0.316828 23.1426 -0.531313 17.867 1.03919C12.5914 2.6097 7.98167 5.87739 4.75287 10.3353C1.52407 14.7932 -0.143227 20.1921 0.00964355 25.6943C0.162514 31.1966 2.12701 36.4945 5.59835 40.7663C9.06968 45.038 13.8538 48.0447 19.2084 49.3199C24.563 50.5951 30.1888 50.0674 35.2129 47.8188C40.237 45.5701 44.3786 41.7263 46.995 36.8835L46.3847 36.5538C43.8408 41.2621 39.8142 44.9993 34.9295 47.1856C30.0448 49.3718 24.5751 49.8848 19.3691 48.645C14.1631 47.4053 9.51173 44.482 6.13673 40.3288C2.76172 36.1756 0.851734 31.0246 0.703106 25.675C0.554478 20.3255 2.17551 15.0764 5.31471 10.7422C8.45391 6.40802 12.9358 3.23101 18.0649 1.70408C23.1941 0.17716 28.6838 0.385693 33.6824 2.29733C38.6809 4.20897 42.9088 7.71684 45.7102 12.2767L46.3013 11.9136Z" stroke="#60332D" stroke-width="2" mask="url(#path-1-inside-1_1387_795)"/>
<g clip-path="url(#clip0_1387_795)">
<path d="M29.7969 14.5C29.7969 20.299 23.832 25 16.4739 25" stroke="#60332D" stroke-width="1.5" stroke-linecap="round"/>
<path d="M29.7969 35.5001C29.7969 29.7011 23.832 25.0001 16.4739 25.0001" stroke="#60332D" stroke-width="1.5" stroke-linecap="round"/>
<path d="M69.2031 25L22.1741 25" stroke="#60332D" stroke-width="1.5" stroke-linecap="round"/>
</g>
<defs>
<clipPath id="clip0_1387_795">
<rect width="55" height="24" fill="white" transform="matrix(-1 0 2.306e-08 1 70 13)"/>
</clipPath>
</defs>
</svg>
