<svg width="190" height="201" viewBox="0 0 190 201" fill="none" xmlns="http://www.w3.org/2000/svg">
<path d="M29.6914 157.631C-8.77516 142.923 -1.42125 107.191 7.06403 91.1632C41.3588 29.9983 61.1577 11.6137 117.019 8.07815C172.881 4.54261 184.548 38.8373 187.73 47.6761C190.912 56.515 188.79 142.075 169.699 164.702C150.607 187.33 116.312 182.026 100.049 177.784C83.7851 173.541 77.7747 176.016 29.6914 157.631Z" fill="#FDF5F3"/>
<path d="M109.14 70.1364C108.618 70.4207 108.413 70.8632 108.176 72.3158L107.986 73.5482L106.31 72.3639C104.239 70.9113 103.686 70.6589 102.152 70.422C100.587 70.1694 96.5403 70.3091 94.912 70.6565C92.9358 71.0828 90.0428 72.1086 88.0192 73.1034C86.0747 74.0665 82.8655 76.0893 81.6798 77.1314C81.0949 77.6366 81 77.7939 81 78.3308C81 80.0045 85.0945 84.268 90.2957 88.0101C91.102 88.5943 91.9399 89.1305 92.1612 89.2094C92.4299 89.32 93.3152 89.2404 95.0859 88.972C96.4929 88.7509 97.6627 88.5782 97.6785 88.5782C97.7102 88.5782 97.5521 89.0191 97.3465 89.5401C96.8881 90.6454 96.9513 91.2954 97.5204 91.6744C98.3583 92.227 103.986 93 107.101 93C116.491 93 122.72 89.273 127.099 81.0782L127.858 79.6414L130.134 78.5532C131.383 77.9532 132.537 77.2886 132.711 77.0833C133.107 76.578 133.091 75.9322 132.696 75.427C132.111 74.6849 131.763 74.7312 129.297 75.947L127.02 77.0683L126.419 76.7526C126.087 76.5947 124.506 75.5688 122.894 74.4951C118.863 71.8109 116.902 70.8957 114.057 70.3589C112.175 69.9957 109.614 69.8838 109.14 70.1364Z" fill="#DAEFF8"/>
<path d="M107.628 66.2975C106.951 66.6668 106.684 67.2413 106.376 69.129L106.13 70.7294L103.955 69.1905C101.267 67.3029 100.549 66.9746 98.5588 66.6668C96.5275 66.3385 91.2749 66.5232 89.1615 66.9746C86.5967 67.5286 82.8419 68.8622 80.2155 70.1549C77.6918 71.4065 73.5266 74.0328 71.9878 75.387C71.2286 76.0436 71.1055 76.2488 71.1055 76.9464C71.1055 79.1213 76.4197 84.6612 83.1702 89.5241C84.2166 90.2832 85.3041 90.9809 85.5913 91.0834C85.9401 91.2271 87.0891 91.1245 89.3872 90.7757C91.2133 90.4884 92.7317 90.2627 92.7522 90.2627C92.7932 90.2627 92.588 90.8372 92.3213 91.5143C91.7263 92.9506 91.8083 93.7918 92.547 94.2843C93.6345 95.0024 100.939 96.0078 104.981 96.0078C117.169 96.0078 125.253 91.1655 130.937 80.5166L131.921 78.6494L134.876 77.2337C136.497 76.454 137.995 75.5922 138.22 75.3255C138.733 74.6689 138.713 73.8276 138.2 73.1711C137.441 72.2067 136.989 72.2683 133.789 73.8482L130.834 75.305L130.054 74.8946C129.623 74.6894 127.572 73.3557 125.479 71.9605C120.247 68.4724 117.702 67.2823 114.009 66.5847C111.567 66.1128 108.243 65.9692 107.628 66.2975ZM114.337 70.278C116.984 70.9346 119.303 72.0836 123.078 74.6073C125.602 76.3103 126.258 76.8233 126.012 76.9669C125.828 77.0695 124.453 77.4594 122.975 77.8492C113.373 80.3319 103.647 80.8449 93.2241 79.4496C90.8235 79.1419 90.5978 79.1419 90.1258 79.4496C89.0999 80.1267 89.2436 81.9939 90.3515 82.4453C92.1366 83.1839 100.262 83.779 106.089 83.6353C112.737 83.4507 118.954 82.6094 124.35 81.1321C125.704 80.7628 126.833 80.4755 126.874 80.5166C126.915 80.5576 126.525 81.2142 126.012 81.9939C122.339 87.5543 117.743 90.6115 110.911 92.0478C108.49 92.5608 101.698 92.5608 98.5178 92.0478C97.2662 91.8426 96.2197 91.658 96.1787 91.5964C96.1377 91.5554 96.3839 90.8167 96.7327 89.9755C97.4919 88.1288 97.5329 87.5338 96.8558 86.8772C96.2197 86.2206 95.9735 86.2206 90.9466 87.0003C87.9919 87.4517 86.6993 87.5748 86.3915 87.4312C84.6475 86.631 78.0611 80.9885 75.9888 78.5263L75.127 77.4799L75.8247 76.8849C76.9532 75.9205 80.0514 74.0739 82.2879 73.0069C86.6583 70.9141 90.5772 69.9497 94.7014 69.9497C98.5793 69.9497 98.8461 70.0318 102.539 72.576C106.458 75.2434 106.971 75.5307 107.628 75.387C108.572 75.1613 108.982 74.4432 109.351 72.2888C109.885 69.2931 109.7 69.5188 111.178 69.683C111.875 69.7445 113.291 70.0113 114.337 70.278Z" fill="#2A3F75" stroke="#FDF5F3"/>
<path d="M67.8823 101.546C67.6361 101.648 67.3488 101.915 67.2257 102.141C67.0616 102.407 67 106.203 67 113.692C67 125.86 67 125.962 68.2106 128.527C69.4417 131.174 71.6166 133.369 74.284 134.662C77.2181 136.098 75.6176 136.037 107.216 135.975L135.633 135.913L137.131 135.359C141.42 133.8 144.497 130.517 145.728 126.167C146.057 124.957 146.098 123.869 146.098 113.61V102.387L145.626 101.915L145.154 101.443L106.744 101.402C84.8508 101.381 68.149 101.443 67.8823 101.546ZM142.712 106.962V109.096L141.953 108.871C141.522 108.747 140.168 108.645 138.916 108.645C136.967 108.665 136.269 108.768 133.787 109.424C130.237 110.389 129.293 110.348 125.067 109.158C119.65 107.598 118.07 107.598 112.776 109.178C108.796 110.368 107.175 110.368 103.112 109.178C97.6132 107.598 96.1974 107.598 90.8011 109.158C86.6359 110.368 85.2407 110.368 81.1576 109.199C76.623 107.886 74.7148 107.701 71.3088 108.234L70.4881 108.378V106.593V104.828H106.6H142.712V106.962ZM80.0906 112.502C85.4253 113.98 86.718 113.959 92.2169 112.4C96.7719 111.086 97.2849 111.128 103.625 112.954C105.102 113.385 105.923 113.508 107.831 113.508C110.273 113.528 110.375 113.508 115.731 111.948C118.152 111.251 120.101 111.353 123.63 112.379C129.006 113.918 130.791 113.98 134.854 112.789C136.7 112.235 137.398 112.133 139.019 112.153C140.209 112.153 141.296 112.277 141.789 112.461L142.61 112.769V118.391C142.61 123.254 142.548 124.198 142.22 125.408C141.317 128.712 138.609 131.338 135.182 132.22C133.417 132.692 79.5777 132.692 77.8131 132.22C74.92 131.461 72.8067 129.738 71.4524 127.029L70.5907 125.285L70.5291 118.576L70.4676 111.846L71.8628 111.64C74.284 111.271 76.3973 111.497 80.0906 112.502Z" fill="#2A3F75" stroke="#FDF5F3"/>
<path d="M102.17 118.043C101.411 118.679 101.39 119.767 102.088 120.526C102.56 121.019 102.662 121.039 105.002 121.039C107.32 121.039 107.464 121.019 107.936 120.526C108.284 120.198 108.449 119.808 108.449 119.357C108.428 117.941 107.669 117.551 104.878 117.551C102.909 117.551 102.683 117.592 102.17 118.043Z" fill="#2A3F75"/>
<path d="M75.9247 119.909C75.2681 120.545 75.2681 121.448 75.9042 122.207C76.3966 122.781 76.4172 122.781 78.8999 122.781H81.4031L81.916 122.186C82.3264 121.694 82.4085 121.448 82.3059 120.853C82.1007 119.58 81.6698 119.396 78.8588 119.396C76.5403 119.396 76.3966 119.416 75.9247 119.909Z" fill="#2A3F75"/>
<path d="M134.916 120.465C133.849 121.04 133.643 122.435 134.505 123.297C134.874 123.666 135.203 123.707 137.378 123.707C139.737 123.707 139.881 123.687 140.353 123.194C141.009 122.558 141.009 121.655 140.373 120.896C139.901 120.342 139.799 120.322 137.644 120.26C136.126 120.219 135.264 120.28 134.916 120.465Z" fill="#2A3F75"/>
<path d="M117.251 125.328C116.43 126.148 116.512 127.236 117.456 127.954C117.969 128.344 122.381 128.303 122.955 127.913C123.878 127.256 123.714 125.43 122.688 124.958C122.401 124.835 121.211 124.733 120.021 124.733C117.908 124.733 117.846 124.753 117.251 125.328Z" fill="#2A3F75"/>
<path d="M89.8762 125.861C89.5274 126.189 89.3633 126.579 89.3633 127.092C89.3633 127.605 89.5274 127.995 89.8762 128.323C90.3482 128.815 90.4918 128.836 92.7283 128.836C94.9032 128.836 95.1289 128.795 95.6419 128.344C96.0727 127.974 96.2164 127.687 96.2164 127.092C96.2164 126.497 96.0727 126.21 95.6419 125.84C95.1289 125.389 94.9032 125.348 92.7283 125.348C90.4918 125.348 90.3482 125.368 89.8762 125.861Z" fill="#2A3F75"/>
</svg>
