<svg width="180" height="201" viewBox="0 0 180 201" fill="none" xmlns="http://www.w3.org/2000/svg">
<path d="M75.1815 195.826C37.5815 212.626 17.5148 182.159 12.1815 164.826C-6.81851 97.3258 -5.81851 70.326 31.1815 28.326C68.1815 -13.674 100.681 2.326 109.181 6.326C117.681 10.326 176.681 72.326 179.181 101.826C181.681 131.326 153.681 151.826 139.181 160.326C124.681 168.826 122.181 174.826 75.1815 195.826Z" fill="#FDF5F3"/>
<path d="M56.7016 106.8C57.3016 106.8 57.8016 106.3 57.8016 105.7V89.4997C57.8016 74.6997 68.3016 53.7997 91.8016 53.7997C115.202 53.7997 125.802 74.6997 125.802 89.4997V112.1C125.802 112.7 126.302 113.2 126.902 113.2C127.502 113.2 128.002 112.7 128.002 112.1V89.4997C128.002 73.6997 116.802 51.5997 91.8016 51.5997C66.8016 51.5997 55.6016 73.6997 55.6016 89.4997V105.7C55.6016 106.3 56.1016 106.8 56.7016 106.8Z" fill="#2A3F75" stroke="#2A3F75" stroke-width="0.5"/>
<path d="M55.6016 131.6V142.1C55.6016 142.7 56.1016 143.2 56.7016 143.2C57.3016 143.2 57.8016 142.7 57.8016 142.1V131.6C57.8016 131 57.3016 130.5 56.7016 130.5C56.1016 130.5 55.6016 131 55.6016 131.6Z" fill="#2A3F75" stroke="#2A3F75" stroke-width="0.5"/>
<path d="M68.25 87.4536C86.75 66.7103 108.042 78.8105 116.375 87.4536V89.0101L118.25 90.8622L120.75 93.949L122 97.0358L120.75 101.975L118.25 104.444L115.125 107.531L113.875 111.235L110.125 119.261C109.083 121.113 104.625 125.681 95.125 129.139C85.625 132.596 77.4167 124.817 74.5 120.496C69.5 116.174 70.75 110.412 68.25 107.531C64.5 103.209 62 100.74 62 95.8011C62 91.85 66.1667 90.8622 68.25 90.8622V87.4536Z" fill="#DAEFF8"/>
<path d="M98.0022 114.8C94.4022 118 89.0022 118 85.4022 114.9C84.9022 114.5 84.2022 114.5 83.8022 115C83.4022 115.5 83.4022 116.2 83.9022 116.6C86.1022 118.5 88.9022 119.5 91.6022 119.5C94.4022 119.5 97.2022 118.5 99.4022 116.5C99.9022 116.1 99.9022 115.4 99.5022 114.9C99.2022 114.5 98.5022 114.4 98.0022 114.8Z" fill="#2A3F75" stroke="#2A3F75" stroke-width="0.5"/>
<path d="M126.801 146.299C110.001 146.299 105.301 133.299 105.101 125.999C111.801 120.399 115.201 111.599 115.601 107.799C117.501 106.899 122.701 103.599 122.701 96.4993C122.701 92.3993 120.101 90.5993 117.401 90.1993V81.0993C117.401 77.5993 116.301 74.1993 114.201 71.3993C110.101 65.8993 104.101 62.1993 97.5012 60.7993C97.4012 60.7993 97.3012 60.6993 97.1012 60.6993C95.4012 60.3993 93.6012 60.1993 91.8012 60.1993C82.0012 60.1993 75.3012 63.4993 69.4012 71.3993C67.3012 74.1993 66.2012 77.4993 66.2012 81.0993V90.1993C63.5012 90.5993 60.9012 92.3993 60.9012 96.4993C60.9012 103.599 66.1012 106.799 68.0012 107.799C68.4012 111.599 71.8012 120.399 78.5012 125.999C78.3012 133.299 73.6012 146.299 56.8012 146.299C56.2012 146.299 55.7012 146.799 55.7012 147.399C55.7012 147.999 56.2012 148.499 56.8012 148.499C74.2012 148.499 79.8012 135.799 80.6012 127.499C83.7012 129.599 87.5012 130.899 91.9012 130.899C96.3012 130.899 100.101 129.499 103.201 127.499C104.001 135.799 109.601 148.499 127.001 148.499C127.601 148.499 128.101 147.999 128.101 147.399C127.901 146.799 127.501 146.299 126.801 146.299ZM112.401 72.7993C114.201 75.1993 115.201 78.0993 115.201 81.0993V81.1993C110.901 76.6993 105.501 73.3993 99.7012 71.7993C100.901 70.5993 101.701 68.8993 101.701 67.0993C101.701 66.0993 101.501 65.0993 101.001 64.1993C105.501 65.9993 109.501 68.8993 112.401 72.7993ZM71.1012 72.7993C76.6012 65.4993 82.6012 62.4993 91.8012 62.4993C93.5012 62.4993 95.2012 62.6993 96.8012 62.9993C98.4012 63.6993 99.5012 65.3993 99.5012 67.0993C99.5012 68.8993 98.4012 70.4993 96.8012 71.1993C95.1012 70.8993 93.4012 70.7993 91.8012 70.7993C83.1012 70.7993 74.5012 74.6993 68.3012 81.1993V81.0993C68.3012 78.0993 69.3012 75.1993 71.1012 72.7993ZM70.0012 106.999C70.0012 106.499 69.7012 106.099 69.3012 105.999C69.2012 105.999 63.0012 103.499 63.0012 96.4993C63.0012 93.0993 65.3012 92.2993 67.2012 92.2993C67.8012 92.2993 68.3012 91.7993 68.3012 91.1993V84.5993C74.1012 77.3993 82.9012 72.9993 91.8012 72.9993C100.701 72.9993 109.401 77.2993 115.301 84.5993V91.1993C115.301 91.7993 115.801 92.2993 116.401 92.2993C118.301 92.2993 120.601 92.9993 120.601 96.4993C120.601 103.399 114.501 105.899 114.301 105.999C113.901 106.199 113.601 106.599 113.601 106.999C113.601 111.299 106.601 128.699 91.9012 128.699C77.0012 128.699 70.0012 111.299 70.0012 106.999Z" fill="#2A3F75" stroke="#2A3F75" stroke-width="0.5"/>
<path d="M110.2 97.9999C110.6 97.4999 110.5 96.7999 110 96.4999C109.5 96.0999 108.8 96.1999 108.5 96.6999C107.4 98.0999 105.8 98.8999 104.1 98.8999C102.4 98.8999 100.8 98.1999 99.7001 96.7999C99.3001 96.2999 98.6 96.2999 98.1 96.5999C97.6 96.9999 97.6001 97.6999 97.9001 98.1999C99.4001 100.1 101.6 101.1 104 101.1H104.1C106.4 101 108.7 99.8999 110.2 97.9999Z" fill="#2A3F75" stroke="#2A3F75" stroke-width="0.5"/>
<path d="M85.6004 98.0998C86.0004 97.5998 85.9004 96.8998 85.4004 96.4998C84.9004 96.0998 84.2004 96.1998 83.8004 96.6998C82.7004 98.0998 81.1004 98.7998 79.4004 98.7998C77.7004 98.7998 76.1004 97.9998 75.0004 96.5998C74.6004 96.0998 73.9004 95.9998 73.5004 96.3998C73.0004 96.7998 73.0004 97.4998 73.3004 97.9998C74.8004 99.8998 77.0004 101.1 79.4004 101.1H79.5004C81.9004 101.1 84.1004 99.9998 85.6004 98.0998Z" fill="#2A3F75" stroke="#2A3F75" stroke-width="0.5"/>
<path d="M98.8003 89.0997C99.1003 89.0997 99.3003 88.9997 99.6003 88.7997C101.3 87.0997 104.8 86.9997 109 88.3997C109.6 88.5997 110.2 88.2997 110.4 87.6997C110.6 87.0997 110.3 86.4997 109.7 86.2997C104.6 84.5997 100.4 84.9997 98.1003 87.1997C97.7003 87.5997 97.6003 88.2997 98.1003 88.7997C98.2003 88.9997 98.5003 89.0997 98.8003 89.0997Z" fill="#2A3F75" stroke="#2A3F75" stroke-width="0.5"/>
<path d="M74.6 88.3997C78.9 86.9997 82.3 87.0997 84 88.7997C84.2 88.9997 84.5 89.0997 84.8 89.0997C85.1 89.0997 85.4 88.9997 85.6 88.7997C86 88.3997 86 87.6997 85.6 87.1997C83.3 84.9997 79 84.5997 74 86.2997C73.4 86.4997 73.1 87.0997 73.3 87.6997C73.4 88.2997 74 88.5997 74.6 88.3997Z" fill="#2A3F75" stroke="#2A3F75" stroke-width="0.5"/>
<path d="M122.7 114C122.7 113.4 122.2 112.9 121.6 112.9C121 112.9 120.5 113.4 120.5 114C120.5 118 118.6 119.9 114.6 119.9C114 119.9 113.5 120.4 113.5 121C113.5 121.6 114 122.1 114.6 122.1C118.6 122.1 120.5 124 120.5 128C120.5 128.6 121 129.1 121.6 129.1C122.2 129.1 122.7 128.6 122.7 128C122.7 124 124.6 122.1 128.6 122.1C129.2 122.1 129.7 121.6 129.7 121C129.7 120.4 129.2 119.9 128.6 119.9C124.6 120 122.7 118 122.7 114Z" fill="#2A3F75" stroke="#2A3F75" stroke-width="0.5"/>
<path d="M135.6 134C131.6 134 129.7 132.1 129.7 128.1C129.7 127.5 129.2 127 128.6 127C128 127 127.5 127.5 127.5 128.1C127.5 132.1 125.6 134 121.6 134C121 134 120.5 134.5 120.5 135.1C120.5 135.7 121 136.2 121.6 136.2C125.6 136.2 127.5 138.1 127.5 142.1C127.5 142.7 128 143.2 128.6 143.2C129.2 143.2 129.7 142.7 129.7 142.1C129.7 138.1 131.6 136.2 135.6 136.2C136.2 136.2 136.7 135.7 136.7 135.1C136.7 134.5 136.2 134 135.6 134Z" fill="#2A3F75" stroke="#2A3F75" stroke-width="0.5"/>
<path d="M59.5008 114C59.5008 113.4 59.0008 112.9 58.4008 112.9C54.4008 112.9 52.5008 111 52.5008 107C52.5008 106.4 52.0008 105.9 51.4008 105.9C50.8008 105.9 50.3008 106.4 50.3008 107C50.3008 111 48.4008 112.9 44.4008 112.9C43.8008 112.9 43.3008 113.4 43.3008 114C43.3008 114.6 43.8008 115.1 44.4008 115.1C48.4008 115.1 50.3008 117 50.3008 121C50.3008 121.6 50.8008 122.1 51.4008 122.1C52.0008 122.1 52.5008 121.6 52.5008 121C52.5008 117 54.4008 115.1 58.4008 115.1C59.0008 115.1 59.5008 114.6 59.5008 114Z" fill="#2A3F75" stroke="#2A3F75" stroke-width="0.5"/>
<path d="M62.6016 131.6C62.6016 132.2 63.1016 132.7 63.7016 132.7C64.3016 132.7 64.8016 132.2 64.8016 131.6C64.8016 127.6 66.7016 125.7 70.7016 125.7C71.3016 125.7 71.8016 125.2 71.8016 124.6C71.8016 124 71.3016 123.5 70.7016 123.5C66.7016 123.5 64.8016 121.6 64.8016 117.6C64.8016 117 64.3016 116.5 63.7016 116.5C63.1016 116.5 62.6016 117 62.6016 117.6C62.6016 121.6 60.7016 123.5 56.7016 123.5C56.1016 123.5 55.6016 124 55.6016 124.6C55.6016 125.2 56.1016 125.7 56.7016 125.7C60.6016 125.7 62.6016 127.6 62.6016 131.6Z" fill="#2A3F75" stroke="#2A3F75" stroke-width="0.5"/>
</svg>
