<svg width="198" height="201" viewBox="0 0 198 201" fill="none" xmlns="http://www.w3.org/2000/svg">
<path d="M29.92 157.62C-8.54665 142.912 -1.19273 107.179 7.29255 91.1515C41.5873 29.9866 61.3862 11.602 117.248 8.06643C173.109 4.53089 184.776 38.8256 187.958 47.6644C191.14 56.5032 189.019 142.063 169.927 164.691C150.835 187.318 116.541 182.015 100.277 177.772C84.0136 173.529 78.0032 176.004 29.92 157.62Z" fill="#FDF5F3"/>
<path d="M133.999 90L125.499 87.5L109.5 61.5L108.5 66C108.333 67.1667 106.7 71.3 101.499 78.5C88.6994 95.7 98.8327 108.333 105.499 112.5L112.499 114H122.499L130.999 108L134.999 101L133.999 90Z" fill="#DAEFF8"/>
<path d="M106.73 57.5234C106.418 57.6601 105.949 57.9921 105.734 58.246C105.324 58.6953 97.9609 70.9804 97.7266 71.6054C97.5312 72.0937 98.0391 73.0117 98.625 73.2656C99.7578 73.7343 99.9922 73.4413 104.035 66.6249C106.105 63.1288 107.863 60.2578 107.961 60.2187C108.156 60.1601 123.137 85.2578 123.801 86.7617C124.25 87.7382 124.367 87.621 122.355 88.207C117.141 89.7109 112.57 93.6757 110.227 98.7734C109.035 101.352 108.547 103.617 108.547 106.664C108.527 108.109 108.625 109.73 108.742 110.258L108.938 111.215L106.945 111.098C98.8398 110.629 92.3164 104.691 90.8906 96.4492C90.3633 93.4218 90.8516 89.7304 92.1602 86.8593C92.4531 86.1953 93.6836 84.0273 94.875 82.0156C97.1992 78.1484 97.4141 77.5234 96.6719 76.7812C96.1836 76.2929 95.2852 76.2734 94.7578 76.7226C94.2695 77.1523 90.6367 83.3437 89.6211 85.4531C89.1914 86.332 88.625 87.914 88.3516 88.9882C87.9023 90.6484 87.8242 91.3515 87.8242 93.7734C87.8047 95.707 87.9023 96.996 88.1172 97.8163L88.4102 99.0273L74.8164 99.0859C61.3203 99.1445 61.2227 99.1445 60.4414 99.5742C59.4453 100.102 58.8984 100.687 58.4102 101.781C58.0195 102.641 58 102.953 58 121.801C58 135.199 58.0586 141.176 58.2148 141.723C58.5078 142.758 59.9922 144.242 61.0273 144.535C62.1211 144.828 153.859 144.848 154.973 144.535C155.969 144.262 157.512 142.719 157.785 141.684C157.922 141.176 158 134.711 158 121.801C158 102.953 157.98 102.641 157.59 101.781C157.102 100.687 156.555 100.102 155.559 99.5742C154.836 99.1835 154.426 99.1445 150.383 99.0859C146.125 99.0273 145.969 99.0273 145.441 99.4374C144.836 99.9062 144.719 100.863 145.188 101.508C145.441 101.859 145.793 101.879 149.895 101.977C155.441 102.094 155.07 101.84 155.07 105.609V108.227H143.547H132.043L132.922 106.977C133.762 105.766 135.344 102.641 135.344 102.191C135.344 102.055 136.105 101.977 137.688 101.977C139.777 101.977 140.07 101.937 140.422 101.586C141.008 101 140.949 99.9648 140.305 99.457C139.855 99.1054 139.504 99.0468 137.941 99.0468C136.301 99.0468 136.105 99.0078 136.203 98.7148C136.457 98.0898 136.34 93.6562 136.027 92.1328C135.637 90.0624 135.051 88.9101 134.152 88.4609C133.215 87.9726 131.145 87.5624 128.996 87.4062L127.238 87.2695L126.438 85.5898C125.559 83.7148 110.93 58.9882 110.266 58.246C109.426 57.3085 107.902 56.996 106.73 57.5234ZM131.398 90.6484C131.965 90.7656 132.551 90.9999 132.688 91.1562C133.156 91.6054 133.449 94.0468 133.352 96.6835C133.273 98.8124 133.176 99.3984 132.629 101C130.812 106.352 126.574 110.355 121.184 111.84C119.816 112.211 116.086 112.445 114.738 112.25L113.801 112.094L115.539 110.355L117.277 108.617H120.383C123.312 108.617 123.527 108.598 123.957 108.187C124.602 107.602 124.562 106.625 123.898 106.098C123.469 105.766 123.098 105.687 121.789 105.687H120.227L121.379 104.516L122.531 103.344H125.656C128.586 103.344 128.801 103.324 129.23 102.914C129.875 102.328 129.836 101.352 129.172 100.824C128.742 100.492 128.371 100.414 127.082 100.414H125.5L127.59 98.2851C129.855 95.9999 130.031 95.6288 129.27 94.6718C128.996 94.3203 128.684 94.164 128.254 94.164C127.727 94.164 127.316 94.4765 125.559 96.2343L123.488 98.3046L123.391 96.6249C123.312 95.2382 123.234 94.8476 122.883 94.5156C122.336 93.9687 121.379 93.9687 120.832 94.5351C120.422 94.9257 120.402 95.1601 120.344 98.2265L120.285 101.488L119.27 102.523L118.254 103.559L118.156 101.859C118.059 100.316 118 100.141 117.512 99.7109C116.848 99.1445 116.418 99.1249 115.734 99.6523L115.227 100.043V103.285V106.527L113.527 108.246C111.457 110.355 111.438 110.336 111.457 106.859C111.477 103.812 111.906 102.074 113.293 99.2617C115.539 94.8085 119.953 91.5078 124.953 90.5507C126.633 90.2382 129.738 90.2773 131.398 90.6484ZM90.2266 103.5C90.6758 104.34 91.5156 105.59 92.082 106.273C92.668 106.977 93.2344 107.699 93.3516 107.875C93.5469 108.207 92.7266 108.227 77.2383 108.227H60.9297V105.668C60.9297 103.012 61.0664 102.465 61.7695 102.172C62.0039 102.074 68.332 101.996 75.8125 101.996L89.4258 101.977L90.2266 103.5ZM99.0938 112.035C101.125 113.031 103.859 113.793 106.203 113.988C107.805 114.144 107.805 114.144 107.805 114.691C107.805 115.434 108.43 116.039 109.172 116.039C109.602 116.039 110.012 115.824 110.559 115.297L111.359 114.555L113.039 114.906C118.137 115.941 123.645 114.828 127.961 111.918L129.074 111.156H142.062H155.07V116.43V121.684L153.859 121.117C151.926 120.199 150.109 119.887 147.473 120.004C144.797 120.121 143.605 120.492 140.676 122.152C138.039 123.637 136.984 123.91 134.27 123.812C131.887 123.715 131.809 123.695 127.355 121.312C125.539 120.355 123.762 119.945 121.34 119.945C118.332 119.945 116.789 120.434 113.273 122.484C111.516 123.519 110.246 123.852 108 123.852C105.734 123.852 104.484 123.519 102.668 122.445C99.2305 120.434 97.6875 119.945 94.6602 119.945C92.4141 119.945 90.5586 120.336 89.0547 121.098C84.6797 123.344 83.7031 123.871 83.4688 124.066C82.7656 124.652 83.5078 126.391 84.4648 126.391C85.207 126.391 86.5156 125.844 88.7031 124.613C91.2227 123.187 92.2969 122.875 94.6406 122.875C96.8867 122.875 98.0195 123.207 100.441 124.574C103.82 126.488 104.484 126.684 108 126.664C111.535 126.664 112.082 126.527 115.422 124.652C118.02 123.207 119.113 122.875 121.398 122.875C123.664 122.875 124.973 123.266 127.492 124.711C130.344 126.332 131.281 126.625 134.172 126.723C137.746 126.859 139.191 126.449 142.961 124.223C144.797 123.148 146.301 122.816 148.879 122.914C150.988 123.012 151.008 123.012 153.039 124.047L155.07 125.082V132.973V140.863L154.582 141.332L154.113 141.82H108H61.8867L61.418 141.332L60.9297 140.863V132.973V125.082L62.9609 124.047C64.9922 123.012 65.0117 123.012 67.1211 122.914C69.7773 122.816 71.1641 123.129 73.3125 124.359C75.5195 125.648 77.1602 126.391 77.7461 126.391C78.3906 126.391 79.0352 125.863 79.1914 125.219C79.3672 124.379 78.8984 123.832 77.5312 123.266C76.8281 122.973 75.5586 122.328 74.7188 121.84C72.1016 120.316 71.0664 120.043 67.7656 120.043C64.7578 120.043 63.918 120.219 61.8477 121.254L60.9297 121.703V116.43V111.156H79.1328H97.3359L99.0938 112.035Z" fill="#2A3F75"/>
<path d="M77.043 130.785C76.7695 131.039 76.5547 131.488 76.5547 131.762C76.5547 132.035 76.7695 132.484 77.043 132.738C77.4531 133.168 77.6875 133.226 78.957 133.226C80.7344 133.226 81.4375 132.816 81.4375 131.762C81.4375 130.707 80.7344 130.297 78.957 130.297C77.6875 130.297 77.4531 130.355 77.043 130.785Z" fill="#2A3F75"/>
<path d="M100.302 130.707C99.6379 131.234 99.5988 132.211 100.243 132.797C100.634 133.168 100.927 133.227 102.216 133.227C103.544 133.227 103.779 133.168 104.189 132.738C104.462 132.484 104.677 132.035 104.677 131.762C104.677 131.488 104.462 131.039 104.189 130.785C103.779 130.355 103.544 130.297 102.275 130.297C101.103 130.297 100.732 130.375 100.302 130.707Z" fill="#2A3F75"/>
<path d="M123.663 130.434C123.527 130.492 123.292 130.785 123.116 131.117C122.863 131.605 122.863 131.801 123.058 132.27C123.37 133.07 123.761 133.227 125.441 133.227C127.257 133.227 127.804 132.875 127.804 131.762C127.804 130.629 127.257 130.297 125.402 130.316C124.581 130.316 123.8 130.375 123.663 130.434Z" fill="#2A3F75"/>
<path d="M146.574 130.785C146.301 131.039 146.086 131.488 146.086 131.762C146.086 132.035 146.301 132.484 146.574 132.738C146.984 133.168 147.219 133.226 148.586 133.226C150.402 133.226 150.969 132.875 150.969 131.762C150.969 130.648 150.402 130.297 148.586 130.297C147.219 130.297 146.984 130.355 146.574 130.785Z" fill="#2A3F75"/>
<path d="M65.4609 134.789C65.1875 135.062 65.0312 135.433 65.0312 135.863C65.0312 136.976 65.5977 137.328 67.4141 137.328C68.7812 137.328 69.0156 137.269 69.4258 136.84C70.0508 136.234 70.0508 135.492 69.4258 134.887C69.0156 134.457 68.7812 134.398 67.4141 134.398C66.1445 134.398 65.8125 134.457 65.4609 134.789Z" fill="#2A3F75"/>
<path d="M88.6445 134.769C88.3125 135.023 88.1953 135.336 88.1953 135.863C88.1953 136.976 88.7422 137.328 90.5195 137.328C92.2578 137.328 92.5117 137.25 92.8828 136.508C93.1367 136.019 93.1367 135.824 92.9414 135.355C92.6289 134.555 92.2383 134.398 90.5586 134.398C89.4258 134.398 88.9961 134.476 88.6445 134.769Z" fill="#2A3F75"/>
<path d="M111.809 134.887C111.535 135.141 111.32 135.59 111.32 135.863C111.32 136.137 111.535 136.586 111.809 136.84C112.219 137.269 112.453 137.328 113.82 137.328C115.168 137.328 115.402 137.269 115.773 136.879C116.379 136.234 116.34 135.316 115.695 134.808C115.266 134.476 114.895 134.398 113.723 134.398C112.453 134.398 112.219 134.457 111.809 134.887Z" fill="#2A3F75"/>
<path d="M135.07 134.808C134.367 135.355 134.367 136.371 135.07 136.918C135.5 137.25 135.871 137.328 137.043 137.328C138.312 137.328 138.547 137.269 138.957 136.84C139.23 136.586 139.445 136.137 139.445 135.863C139.445 135.59 139.23 135.141 138.957 134.887C138.547 134.457 138.312 134.398 137.043 134.398C135.871 134.398 135.5 134.476 135.07 134.808Z" fill="#2A3F75"/>
<path d="M82.5117 58.6174C82.2578 58.9103 82.1211 59.4377 82.0625 60.551L81.9844 62.0939L80.4609 62.1721C78.6641 62.2502 78.1172 62.5822 78.1172 63.6369C78.1172 64.7502 78.6445 65.0627 80.4609 65.0627H82.0234L82.043 66.2736C82.043 67.9338 82.375 68.8127 83.0586 69.0471C84.3867 69.5158 85.1094 68.5588 85.1289 66.2736L85.1484 65.0627H86.7109C88.5273 65.0627 89.0547 64.7502 89.0547 63.6369C89.0547 62.5822 88.5078 62.2502 86.7109 62.1721L85.1875 62.0939L85.1094 60.551C84.9922 58.715 84.6797 58.2268 83.5859 58.2268C83.1172 58.2268 82.7461 58.3635 82.5117 58.6174Z" fill="#2A3F75"/>
<path d="M131.34 58.6174C131.086 58.9103 130.949 59.4377 130.891 60.551L130.812 62.0939L129.289 62.1721C127.492 62.2502 126.945 62.5822 126.945 63.6369C126.945 64.7502 127.473 65.0627 129.289 65.0627H130.852L130.871 66.2736C130.871 67.9338 131.203 68.8127 131.887 69.0471C133.215 69.5158 133.938 68.5588 133.957 66.2736L133.977 65.0627H135.539C137.355 65.0627 137.883 64.7502 137.883 63.6369C137.883 62.5822 137.336 62.2502 135.539 62.1721L134.016 62.0939L133.938 60.551C133.82 58.715 133.508 58.2268 132.414 58.2268C131.945 58.2268 131.574 58.3635 131.34 58.6174Z" fill="#2A3F75"/>
<path d="M69.1914 74.3398C68.9375 74.5156 68.4297 75.2383 68.0391 75.9609C66.6914 78.4414 66.5547 78.5781 64.6406 79.6133C62.668 80.668 62.1016 81.2344 62.1016 82.0938C62.1016 83.1875 62.5703 83.6758 64.6797 84.8477L66.6914 85.9609L67.7461 87.9336C68.8789 89.9844 69.3672 90.4531 70.4609 90.4531C71.3203 90.4531 71.8281 89.9258 73.0195 87.8164L74.1133 85.9023L75.9492 84.8867C78.1367 83.6758 78.5078 83.2852 78.5078 82.1719C78.5078 81.0977 78.1562 80.7461 75.8711 79.5156L74.0352 78.5195L73.0391 76.6836C72.4922 75.668 71.8672 74.6523 71.6328 74.4375C71.1055 73.9688 69.7969 73.9102 69.1914 74.3398ZM73.2539 81.3906C74.0938 81.8789 74.5234 82.2109 74.4062 82.3281C74.2891 82.4453 73.7031 82.7969 73.0977 83.1094C72.1016 83.6367 71.8672 83.8906 71.1641 85.1406L70.3438 86.5664L69.6602 85.3359C68.8594 83.8906 68.6445 83.6758 67.1211 82.8359L65.9883 82.2109L67.4141 81.3906C68.5469 80.7461 68.9375 80.4141 69.3086 79.7109C70.3828 77.6797 70.2461 77.7188 71.1445 79.2617C71.8281 80.4922 72.082 80.7266 73.2539 81.3906Z" fill="#2A3F75"/>
<path d="M144.367 74.4375C144.133 74.6523 143.508 75.668 142.961 76.6836L141.965 78.5195L140.129 79.5156C137.844 80.7461 137.492 81.0977 137.492 82.1719C137.492 83.2852 137.844 83.6562 140.031 84.8477L141.887 85.8633L142.961 87.7969C144.172 89.9258 144.68 90.4531 145.539 90.4531C146.633 90.4531 147.121 89.9844 148.254 87.9336L149.309 85.9609L151.32 84.8477C153.43 83.6953 153.898 83.1875 153.898 82.0938C153.898 81.2344 153.371 80.7266 151.262 79.5352L149.348 78.4414L148.332 76.6055C147.766 75.5898 147.102 74.5938 146.867 74.3984C146.262 73.9102 144.914 73.9297 144.367 74.4375ZM146.555 79.457C147.082 80.4531 147.336 80.6875 148.586 81.3906L150.012 82.2109L148.879 82.8359C147.355 83.6758 147.141 83.8906 146.34 85.3359L145.656 86.5664L144.836 85.1406C144.133 83.8906 143.898 83.6367 142.902 83.1094C142.297 82.7969 141.711 82.4453 141.594 82.3281C141.477 82.2109 141.906 81.8789 142.746 81.3906C143.938 80.7266 144.172 80.4922 144.836 79.3008C145.324 78.4609 145.656 78.0312 145.773 78.1484C145.891 78.2656 146.242 78.8516 146.555 79.457Z" fill="#2A3F75"/>
</svg>
