<svg width="180" height="209" viewBox="0 0 180 209" fill="none" xmlns="http://www.w3.org/2000/svg">
<path d="M78.9546 12.3958C110.925 -13.5633 138.193 10.6716 147.831 26.0339C183.654 86.3165 189.676 112.655 164.807 162.8C139.939 212.946 104.405 205.902 95.1593 204.239C85.9137 202.575 12.8773 157.958 2.82728 130.11C-7.22269 102.262 14.5174 75.2139 26.3234 63.2506C38.1294 51.2874 38.9913 44.8448 78.9546 12.3958Z" fill="#FDF5F3"/>
<g clip-path="url(#clip0_261_26)">
<path d="M108.75 82.125C108.75 91.4448 101.195 99 91.875 99C82.5552 99 75 91.4448 75 82.125C75 72.8052 82.5552 65.25 91.875 65.25C101.195 65.25 108.75 72.8052 108.75 82.125Z" fill="#DAEFF8"/>
<path d="M86.9717 62.3396C84.3936 62.7107 81.2686 63.8826 79.1592 65.2693C77.2061 66.5388 76.9131 67.1248 77.753 68.1013C78.378 68.8044 79.1788 68.7654 80.3311 67.9841C81.6397 67.0857 83.8467 66.0896 85.6045 65.6208C86.8741 65.2693 87.6944 65.1912 89.9991 65.1912C92.3038 65.1912 93.1241 65.2693 94.3936 65.6208C100.585 67.3005 105.331 72.0466 107.011 78.238C107.636 80.4841 107.636 84.781 107.011 87.0271C105.331 93.2185 100.585 97.9841 94.3936 99.6443C92.3428 100.211 88.0459 100.269 86.0342 99.7615C79.628 98.1599 74.7061 93.3552 72.9873 87.0271C72.6358 85.7576 72.5577 84.9373 72.5577 82.6326C72.5577 79.1365 72.9092 77.613 74.4717 74.5271C75.0577 73.3357 75.5459 72.2029 75.5459 71.9685C75.5459 71.4021 74.7452 70.7185 74.1006 70.7185C73.0655 70.7185 71.835 72.5935 70.6827 75.8748C68.085 83.2966 69.96 91.5193 75.5264 97.1052C78.1631 99.742 81.3467 101.519 85.3116 102.594C87.5577 103.219 92.3819 103.199 94.7647 102.574C103.69 100.25 109.921 92.7693 110.448 83.8044C110.976 74.5857 105.214 66.1091 96.4444 63.2185C93.3194 62.1833 90.0967 61.8904 86.9717 62.3396Z" fill="#2A3F75"/>
<path d="M88.6933 68.9221C88.3613 69.0978 87.912 69.4689 87.7167 69.7424C86.5058 71.3439 80.8613 80.3869 80.4511 81.3635C79.8847 82.7892 79.6894 85.3283 80.0214 86.9885C80.8808 91.051 84.3769 94.3517 88.4785 94.9767C93.7519 95.7775 98.8886 92.2033 99.9824 86.9885C100.314 85.3283 100.119 82.7892 99.5527 81.3635C99.1425 80.3869 96.623 76.3049 92.8144 70.5236C91.6035 68.6681 90.1777 68.1213 88.6933 68.9221ZM93.205 76.5002C96.955 82.301 97.3066 83.0822 97.1894 85.2502C96.7792 92.7697 86.7792 94.7814 83.4589 88.0236C82.6386 86.3439 82.541 84.1564 83.205 82.4963C83.6347 81.4416 89.7675 71.6955 90.0019 71.6955C90.0605 71.6955 91.5058 73.8635 93.205 76.5002Z" fill="#2A3F75"/>
<path d="M90.8203 79.7031C90.5469 79.9766 90.3906 80.3477 90.3906 80.7773C90.3906 81.6953 91.0156 82.2422 92.0508 82.2422C93.0859 82.2422 93.7109 81.6953 93.7109 80.7773C93.7109 79.8594 93.0859 79.3125 92.0508 79.3125C91.5039 79.3125 91.1133 79.4492 90.8203 79.7031Z" fill="#2A3F75"/>
<path d="M92.5781 84.3906C92.3047 84.6641 92.1484 85.0352 92.1484 85.4648C92.1484 86.3828 92.7734 86.9297 93.8086 86.9297C94.8438 86.9297 95.4688 86.3828 95.4688 85.4648C95.4688 84.5469 94.8438 84 93.8086 84C93.2617 84 92.8711 84.1367 92.5781 84.3906Z" fill="#2A3F75"/>
<path d="M88.8672 87.9062C88.5938 88.1797 88.4375 88.5508 88.4375 88.9805C88.4375 89.8984 89.0625 90.4453 90.0977 90.4453C91.1328 90.4453 91.7578 89.8984 91.7578 88.9805C91.7578 88.0625 91.1328 87.5156 90.0977 87.5156C89.5508 87.5156 89.1602 87.6523 88.8672 87.9062Z" fill="#2A3F75"/>
<path d="M59.3945 91.6756C56.7969 94.2733 56.6211 94.6053 57.4023 95.6014C58.0469 96.4217 58.8672 96.3045 59.9219 95.2303L60.8008 94.3319L60.8984 102.652L60.9961 110.992L61.4648 111.363C62.0508 111.851 62.9492 111.832 63.4375 111.344C63.8086 110.973 63.8281 110.699 63.8281 102.633V94.2928L64.8047 95.2108C65.5078 95.8749 65.9179 96.1092 66.3672 96.1092C67.1484 96.1092 67.7344 95.5038 67.7344 94.6834C67.7344 94.117 67.4414 93.7459 65.332 91.6561C63.3789 89.7225 62.8125 89.2733 62.3633 89.2733C61.8945 89.2733 61.3476 89.7225 59.3945 91.6756Z" fill="#2A3F75"/>
<path d="M115.059 91.6562C112.949 93.7461 112.656 94.1172 112.656 94.6836C112.656 95.5039 113.242 96.1093 114.023 96.1093C114.473 96.1093 114.883 95.875 115.586 95.2109L116.562 94.2929V102.633C116.562 110.699 116.582 110.973 116.953 111.344C117.441 111.832 118.34 111.852 118.926 111.363L119.395 110.992L119.492 102.652L119.59 94.332L120.469 95.2304C121.523 96.3047 122.344 96.4218 122.988 95.6015C123.77 94.6054 123.594 94.2734 120.996 91.6758C119.043 89.7226 118.496 89.2734 118.027 89.2734C117.578 89.2734 117.012 89.7226 115.059 91.6562Z" fill="#2A3F75"/>
<path d="M43.418 112.301C41.9727 112.652 41.0547 113.453 40.4102 114.859C40.0195 115.719 40 116.031 40 133.902C40 146.461 40.0586 152.301 40.2148 152.848C40.4883 153.844 42.0312 155.387 43.0664 155.66C44.2188 155.992 135.879 155.953 136.953 155.641C138.008 155.328 139.453 153.883 139.766 152.828C139.941 152.223 140 147.613 140 133.883C140 116.051 139.98 115.719 139.59 114.859C139.102 113.766 138.555 113.18 137.559 112.652C136.816 112.242 136.504 112.223 130.176 112.164C124.59 112.105 123.418 112.145 122.5 112.418C121.055 112.828 120 113.883 119.57 115.348C119.18 116.715 119.297 117.418 120.215 119.234C120.82 120.426 120.898 120.738 120.82 121.695C120.723 123.023 120.176 123.883 119.102 124.43C117.246 125.367 114.922 124.43 114.316 122.496C114.023 121.559 114.199 120.562 114.883 119.215C115.781 117.418 115.898 116.715 115.508 115.348C115.078 113.922 114.023 112.848 112.637 112.437C111.113 111.988 96.4258 111.988 94.9023 112.437C93.5156 112.848 92.4609 113.922 92.0312 115.348C91.6406 116.715 91.7578 117.418 92.6758 119.234C93.2812 120.426 93.3594 120.738 93.2812 121.695C93.1836 123.023 92.6367 123.883 91.5625 124.43C89.707 125.367 87.3828 124.43 86.7773 122.496C86.4844 121.559 86.6602 120.562 87.3438 119.215C88.2422 117.418 88.3594 116.715 87.9688 115.348C87.5391 113.922 86.4844 112.848 85.0977 112.437C83.5742 111.988 68.8867 111.988 67.3633 112.437C65.9766 112.848 64.9219 113.922 64.4922 115.348C64.1016 116.715 64.2188 117.418 65.1367 119.234C65.7422 120.426 65.8203 120.738 65.7422 121.695C65.6445 123.023 65.0977 123.883 64.0234 124.43C62.168 125.367 59.8438 124.43 59.2383 122.496C58.9453 121.559 59.1211 120.562 59.8047 119.215C60.7031 117.418 60.8203 116.715 60.4297 115.348C59.7656 113.121 58.0469 112.125 54.8438 112.125C52.7734 112.125 52.1094 112.496 52.1094 113.609C52.1094 114.781 52.5977 115.055 54.7656 115.055C56.582 115.055 56.6406 115.074 57.2266 115.641C57.9102 116.344 57.8906 116.676 56.9727 118.297L56.3672 119.352H49.6484H42.9297V117.711C42.9297 115.367 43.0859 115.191 45.5664 115.055C47.6758 114.937 48.0078 114.742 48.0078 113.57C48.0078 112.516 47.3047 112.125 45.4883 112.145C44.668 112.164 43.75 112.223 43.418 112.301ZM84.7656 115.641C85.4492 116.344 85.4297 116.676 84.5117 118.297L83.9062 119.352H76.2305H68.5547L67.9492 118.297C67.0312 116.676 67.0117 116.344 67.6953 115.641L68.2812 115.055H76.2305H84.1797L84.7656 115.641ZM112.305 115.641C112.988 116.344 112.969 116.676 112.051 118.297L111.445 119.352H103.77H96.0938L95.4883 118.297C94.5703 116.676 94.5508 116.344 95.2344 115.641L95.8203 115.055H103.77H111.719L112.305 115.641ZM136.699 115.621C136.992 115.992 137.07 116.383 137.07 117.711V119.352H130.352H123.633L123.027 118.297C122.109 116.656 122.09 116.344 122.793 115.641L123.379 115.035L129.863 115.094L136.328 115.152L136.699 115.621ZM56.2109 122.633C56.2109 122.848 56.4844 123.531 56.8164 124.195C59.1797 128.922 65.7422 128.922 68.1055 124.195C68.4375 123.531 68.7109 122.848 68.7109 122.633C68.7109 122.301 69.0625 122.281 76.2305 122.281C83.3984 122.281 83.75 122.301 83.75 122.633C83.75 122.848 84.0234 123.531 84.3555 124.195C86.7188 128.922 93.2812 128.922 95.6445 124.195C95.9766 123.531 96.25 122.848 96.25 122.633C96.25 122.301 96.6016 122.281 103.77 122.281C110.938 122.281 111.289 122.301 111.289 122.633C111.289 122.848 111.562 123.531 111.895 124.195C114.258 128.922 120.82 128.922 123.184 124.195C123.516 123.531 123.789 122.848 123.789 122.633C123.789 122.301 124.121 122.281 130.43 122.281H137.07V127.555V132.828L136.152 132.379C134.062 131.324 133.262 131.168 130.137 131.187C126.719 131.187 126.055 131.383 122.578 133.297C121.484 133.922 120.43 134.488 120.273 134.566C119.277 135.074 119.316 136.598 120.332 137.086C121.035 137.418 121.523 137.262 124.18 135.777C127.012 134.195 127.988 133.941 130.762 134.039L132.988 134.117L135.039 135.172L137.07 136.207V144.098V151.988L136.582 152.457L136.113 152.945H90H43.8867L43.418 152.457L42.9297 151.988V144.098V136.207L44.9609 135.172L47.0117 134.117L49.2383 134.039C52.0312 133.922 52.9688 134.176 55.9961 135.875C59.1797 137.652 59.8047 137.809 63.3398 137.789C66.7578 137.77 67.4219 137.594 70.5273 135.816C73.125 134.332 73.75 134.137 76.1523 134.039C78.7695 133.941 79.8242 134.215 82.4414 135.699C85.8008 137.613 86.4844 137.789 90 137.789C93.5156 137.789 94.1992 137.613 97.5586 135.699C100.176 134.215 101.25 133.941 103.848 134.059C106.406 134.176 106.738 134.273 109.473 135.816C112.012 137.262 113.77 137.867 114.57 137.594C115.293 137.34 115.723 136.52 115.488 135.816C115.273 135.25 114.902 135.016 113.438 134.508C112.949 134.332 111.719 133.727 110.703 133.141C107.969 131.578 106.758 131.227 103.965 131.109C100.547 130.992 98.9062 131.461 95.4688 133.512C93.6914 134.586 92.2266 134.977 90.0391 134.977C87.7344 134.977 86.5039 134.645 84.668 133.57C81.2305 131.559 79.6875 131.07 76.6602 131.07C74.2383 131.07 72.4609 131.48 70.6445 132.437C66.1914 134.82 66.1133 134.84 63.7305 134.937C61.0156 135.035 59.9609 134.762 57.3242 133.277C54.0234 131.402 53.2812 131.187 49.8633 131.187C46.7383 131.168 45.9375 131.324 43.8477 132.379L42.9297 132.828V127.555V122.281H49.5703C55.8789 122.281 56.2109 122.301 56.2109 122.633Z" fill="#2A3F75"/>
<path d="M59.043 141.91C58.7695 142.164 58.5547 142.613 58.5547 142.887C58.5547 143.16 58.7695 143.609 59.043 143.863C59.4531 144.293 59.6875 144.352 60.957 144.352C62.7344 144.352 63.4375 143.941 63.4375 142.887C63.4375 141.832 62.7344 141.422 60.957 141.422C59.6875 141.422 59.4531 141.48 59.043 141.91Z" fill="#2A3F75"/>
<path d="M82.2271 141.871C81.6607 142.477 81.6607 143.375 82.2466 143.922C82.6372 144.293 82.9302 144.352 84.2193 144.352C85.5474 144.352 85.7818 144.293 86.1919 143.863C86.4654 143.609 86.6802 143.16 86.6802 142.887C86.6802 142.613 86.4654 142.164 86.1919 141.91C85.7818 141.48 85.5474 141.422 84.1802 141.422C82.8326 141.422 82.5982 141.48 82.2271 141.871Z" fill="#2A3F75"/>
<path d="M105.663 141.559C105.527 141.617 105.292 141.91 105.116 142.242C104.863 142.73 104.863 142.926 105.058 143.395C105.37 144.195 105.761 144.352 107.441 144.352C109.257 144.352 109.804 144 109.804 142.887C109.804 141.754 109.257 141.422 107.402 141.441C106.581 141.441 105.8 141.5 105.663 141.559Z" fill="#2A3F75"/>
<path d="M128.574 141.91C128.301 142.164 128.086 142.613 128.086 142.887C128.086 143.16 128.301 143.609 128.574 143.863C128.984 144.293 129.219 144.352 130.586 144.352C132.402 144.352 132.969 144 132.969 142.887C132.969 141.773 132.402 141.422 130.586 141.422C129.219 141.422 128.984 141.48 128.574 141.91Z" fill="#2A3F75"/>
<path d="M47.4609 145.914C47.1875 146.188 47.0312 146.559 47.0312 146.988C47.0312 148.102 47.5977 148.453 49.4141 148.453C50.7812 148.453 51.0156 148.395 51.4258 147.965C52.0508 147.359 52.0508 146.617 51.4258 146.012C51.0156 145.582 50.7812 145.523 49.4141 145.523C48.1445 145.523 47.8125 145.582 47.4609 145.914Z" fill="#2A3F75"/>
<path d="M70.6445 145.895C70.3125 146.148 70.1953 146.461 70.1953 146.988C70.1953 148.102 70.7422 148.453 72.5195 148.453C74.2578 148.453 74.5117 148.375 74.8828 147.633C75.1367 147.145 75.1367 146.949 74.9414 146.48C74.6289 145.68 74.2383 145.523 72.5586 145.523C71.4258 145.523 70.9961 145.602 70.6445 145.895Z" fill="#2A3F75"/>
<path d="M93.8086 146.012C93.5352 146.266 93.3203 146.715 93.3203 146.988C93.3203 147.262 93.5352 147.711 93.8086 147.965C94.2188 148.395 94.4531 148.453 95.7227 148.453C97.5 148.453 98.2031 148.043 98.2031 147.008C98.2031 145.914 97.5781 145.523 95.7813 145.523C94.4531 145.523 94.2188 145.582 93.8086 146.012Z" fill="#2A3F75"/>
<path d="M117.07 145.934C116.367 146.48 116.367 147.496 117.07 148.043C117.5 148.375 117.871 148.453 119.043 148.453C120.312 148.453 120.547 148.395 120.957 147.965C121.23 147.711 121.445 147.262 121.445 146.988C121.445 146.715 121.23 146.266 120.957 146.012C120.547 145.582 120.312 145.523 119.043 145.523C117.871 145.523 117.5 145.602 117.07 145.934Z" fill="#2A3F75"/>
</g>
<defs>
<clipPath id="clip0_261_26">
<rect width="100" height="100" fill="white" transform="translate(40 59)"/>
</clipPath>
</defs>
</svg>
